<mxfile host="app.diagrams.net" agent="Mozilla/5.0 (Macintosh; Intel Mac OS X 10_15_7) AppleWebKit/537.36 (KHTML, like Gecko) Chrome/134.0.0.0 Safari/537.36" version="26.0.15">
  <diagram name="Page-1" id="5sU2mPLBaRcERNOd2FcL">
    <mxGraphModel dx="1434" dy="785" grid="1" gridSize="10" guides="1" tooltips="1" connect="1" arrows="1" fold="1" page="1" pageScale="1" pageWidth="827" pageHeight="1169" math="0" shadow="0">
      <root>
        <mxCell id="0" />
        <mxCell id="1" parent="0" />
        <mxCell id="nHy3PQvZwh_i2Zd9X1no-11" value="" style="endArrow=none;dashed=1;html=1;dashPattern=1 3;strokeWidth=2;rounded=0;" edge="1" parent="1">
          <mxGeometry width="50" height="50" relative="1" as="geometry">
            <mxPoint x="174" y="585" as="sourcePoint" />
            <mxPoint x="173.5" y="495" as="targetPoint" />
          </mxGeometry>
        </mxCell>
        <mxCell id="nHy3PQvZwh_i2Zd9X1no-12" value="" style="group" vertex="1" connectable="0" parent="1">
          <mxGeometry x="84" y="620" width="190" height="170" as="geometry" />
        </mxCell>
        <mxCell id="nHy3PQvZwh_i2Zd9X1no-7" value="" style="outlineConnect=0;dashed=0;verticalLabelPosition=bottom;verticalAlign=top;align=center;html=1;shape=mxgraph.aws3.lambda_function;fillColor=#F58534;gradientColor=none;" vertex="1" parent="nHy3PQvZwh_i2Zd9X1no-12">
          <mxGeometry width="88.58108108108108" height="82.62295081967211" as="geometry" />
        </mxCell>
        <mxCell id="nHy3PQvZwh_i2Zd9X1no-8" value="" style="outlineConnect=0;dashed=0;verticalLabelPosition=bottom;verticalAlign=top;align=center;html=1;shape=mxgraph.aws3.lambda_function;fillColor=#F58534;gradientColor=none;" vertex="1" parent="nHy3PQvZwh_i2Zd9X1no-12">
          <mxGeometry x="44.29054054054054" y="22.950819672131143" width="88.58108108108108" height="82.62295081967211" as="geometry" />
        </mxCell>
        <mxCell id="nHy3PQvZwh_i2Zd9X1no-9" value="" style="outlineConnect=0;dashed=0;verticalLabelPosition=bottom;verticalAlign=top;align=center;html=1;shape=mxgraph.aws3.lambda_function;fillColor=#F58534;gradientColor=none;" vertex="1" parent="nHy3PQvZwh_i2Zd9X1no-12">
          <mxGeometry x="101.41891891891892" y="57.37704918032786" width="88.58108108108108" height="82.62295081967211" as="geometry" />
        </mxCell>
        <mxCell id="nHy3PQvZwh_i2Zd9X1no-21" value="Different Apps in different Lambda" style="text;html=1;align=center;verticalAlign=middle;resizable=0;points=[];autosize=1;strokeColor=none;fillColor=none;" vertex="1" parent="nHy3PQvZwh_i2Zd9X1no-12">
          <mxGeometry x="-11.420000000000002" y="140" width="200" height="30" as="geometry" />
        </mxCell>
        <mxCell id="nHy3PQvZwh_i2Zd9X1no-17" value="" style="group" vertex="1" connectable="0" parent="1">
          <mxGeometry x="109" y="80" width="160" height="168" as="geometry" />
        </mxCell>
        <mxCell id="nHy3PQvZwh_i2Zd9X1no-15" value="" style="group" vertex="1" connectable="0" parent="nHy3PQvZwh_i2Zd9X1no-17">
          <mxGeometry x="1" width="148" height="138" as="geometry" />
        </mxCell>
        <mxCell id="nHy3PQvZwh_i2Zd9X1no-1" value="" style="sketch=0;points=[[0,0,0],[0.25,0,0],[0.5,0,0],[0.75,0,0],[1,0,0],[0,1,0],[0.25,1,0],[0.5,1,0],[0.75,1,0],[1,1,0],[0,0.25,0],[0,0.5,0],[0,0.75,0],[1,0.25,0],[1,0.5,0],[1,0.75,0]];outlineConnect=0;fontColor=#232F3E;fillColor=#ED7100;strokeColor=#ffffff;dashed=0;verticalLabelPosition=bottom;verticalAlign=top;align=center;html=1;fontSize=12;fontStyle=0;aspect=fixed;shape=mxgraph.aws4.resourceIcon;resIcon=mxgraph.aws4.ec2;" vertex="1" parent="nHy3PQvZwh_i2Zd9X1no-15">
          <mxGeometry width="78" height="78" as="geometry" />
        </mxCell>
        <mxCell id="nHy3PQvZwh_i2Zd9X1no-2" value="" style="sketch=0;points=[[0,0,0],[0.25,0,0],[0.5,0,0],[0.75,0,0],[1,0,0],[0,1,0],[0.25,1,0],[0.5,1,0],[0.75,1,0],[1,1,0],[0,0.25,0],[0,0.5,0],[0,0.75,0],[1,0.25,0],[1,0.5,0],[1,0.75,0]];outlineConnect=0;fontColor=#232F3E;fillColor=#ED7100;strokeColor=#ffffff;dashed=0;verticalLabelPosition=bottom;verticalAlign=top;align=center;html=1;fontSize=12;fontStyle=0;aspect=fixed;shape=mxgraph.aws4.resourceIcon;resIcon=mxgraph.aws4.ec2;" vertex="1" parent="nHy3PQvZwh_i2Zd9X1no-15">
          <mxGeometry x="30" y="30" width="78" height="78" as="geometry" />
        </mxCell>
        <mxCell id="nHy3PQvZwh_i2Zd9X1no-3" value="" style="sketch=0;points=[[0,0,0],[0.25,0,0],[0.5,0,0],[0.75,0,0],[1,0,0],[0,1,0],[0.25,1,0],[0.5,1,0],[0.75,1,0],[1,1,0],[0,0.25,0],[0,0.5,0],[0,0.75,0],[1,0.25,0],[1,0.5,0],[1,0.75,0]];outlineConnect=0;fontColor=#232F3E;fillColor=#ED7100;strokeColor=#ffffff;dashed=0;verticalLabelPosition=bottom;verticalAlign=top;align=center;html=1;fontSize=12;fontStyle=0;aspect=fixed;shape=mxgraph.aws4.resourceIcon;resIcon=mxgraph.aws4.ec2;" vertex="1" parent="nHy3PQvZwh_i2Zd9X1no-15">
          <mxGeometry x="70" y="60" width="78" height="78" as="geometry" />
        </mxCell>
        <mxCell id="nHy3PQvZwh_i2Zd9X1no-16" value="Different Apps in different EC2" style="text;html=1;align=center;verticalAlign=middle;resizable=0;points=[];autosize=1;strokeColor=none;fillColor=none;" vertex="1" parent="nHy3PQvZwh_i2Zd9X1no-17">
          <mxGeometry x="-20" y="138" width="180" height="30" as="geometry" />
        </mxCell>
        <mxCell id="nHy3PQvZwh_i2Zd9X1no-20" value="" style="group" vertex="1" connectable="0" parent="1">
          <mxGeometry x="110" y="280" width="160" height="190" as="geometry" />
        </mxCell>
        <mxCell id="nHy3PQvZwh_i2Zd9X1no-14" value="" style="group" vertex="1" connectable="0" parent="nHy3PQvZwh_i2Zd9X1no-20">
          <mxGeometry width="148" height="138" as="geometry" />
        </mxCell>
        <mxCell id="nHy3PQvZwh_i2Zd9X1no-4" value="" style="sketch=0;points=[[0,0,0],[0.25,0,0],[0.5,0,0],[0.75,0,0],[1,0,0],[0,1,0],[0.25,1,0],[0.5,1,0],[0.75,1,0],[1,1,0],[0,0.25,0],[0,0.5,0],[0,0.75,0],[1,0.25,0],[1,0.5,0],[1,0.75,0]];outlineConnect=0;fontColor=#232F3E;fillColor=#ED7100;strokeColor=#ffffff;dashed=0;verticalLabelPosition=bottom;verticalAlign=top;align=center;html=1;fontSize=12;fontStyle=0;aspect=fixed;shape=mxgraph.aws4.resourceIcon;resIcon=mxgraph.aws4.eks;" vertex="1" parent="nHy3PQvZwh_i2Zd9X1no-14">
          <mxGeometry width="78" height="78" as="geometry" />
        </mxCell>
        <mxCell id="nHy3PQvZwh_i2Zd9X1no-5" value="" style="sketch=0;points=[[0,0,0],[0.25,0,0],[0.5,0,0],[0.75,0,0],[1,0,0],[0,1,0],[0.25,1,0],[0.5,1,0],[0.75,1,0],[1,1,0],[0,0.25,0],[0,0.5,0],[0,0.75,0],[1,0.25,0],[1,0.5,0],[1,0.75,0]];outlineConnect=0;fontColor=#232F3E;fillColor=#ED7100;strokeColor=#ffffff;dashed=0;verticalLabelPosition=bottom;verticalAlign=top;align=center;html=1;fontSize=12;fontStyle=0;aspect=fixed;shape=mxgraph.aws4.resourceIcon;resIcon=mxgraph.aws4.eks;" vertex="1" parent="nHy3PQvZwh_i2Zd9X1no-14">
          <mxGeometry x="30" y="20" width="78" height="78" as="geometry" />
        </mxCell>
        <mxCell id="nHy3PQvZwh_i2Zd9X1no-6" value="" style="sketch=0;points=[[0,0,0],[0.25,0,0],[0.5,0,0],[0.75,0,0],[1,0,0],[0,1,0],[0.25,1,0],[0.5,1,0],[0.75,1,0],[1,1,0],[0,0.25,0],[0,0.5,0],[0,0.75,0],[1,0.25,0],[1,0.5,0],[1,0.75,0]];outlineConnect=0;fontColor=#232F3E;fillColor=#ED7100;strokeColor=#ffffff;dashed=0;verticalLabelPosition=bottom;verticalAlign=top;align=center;html=1;fontSize=12;fontStyle=0;aspect=fixed;shape=mxgraph.aws4.resourceIcon;resIcon=mxgraph.aws4.eks;" vertex="1" parent="nHy3PQvZwh_i2Zd9X1no-14">
          <mxGeometry x="70" y="60" width="78" height="78" as="geometry" />
        </mxCell>
        <mxCell id="nHy3PQvZwh_i2Zd9X1no-18" value="Different Apps in&amp;nbsp; different&amp;nbsp;&lt;div&gt;ECK&lt;/div&gt;" style="text;html=1;align=center;verticalAlign=middle;resizable=0;points=[];autosize=1;strokeColor=none;fillColor=none;" vertex="1" parent="nHy3PQvZwh_i2Zd9X1no-20">
          <mxGeometry y="150" width="160" height="40" as="geometry" />
        </mxCell>
        <mxCell id="nHy3PQvZwh_i2Zd9X1no-22" value="" style="shape=image;verticalLabelPosition=bottom;labelBackgroundColor=default;verticalAlign=top;aspect=fixed;imageAspect=0;image=https://www.climb.co.jp/blog_vmware/wp-content/uploads/2023/10/AzureAD.png;" vertex="1" parent="1">
          <mxGeometry x="680" y="104" width="193.08" height="120" as="geometry" />
        </mxCell>
        <mxCell id="nHy3PQvZwh_i2Zd9X1no-23" value="" style="shape=image;verticalLabelPosition=bottom;labelBackgroundColor=default;verticalAlign=top;aspect=fixed;imageAspect=0;image=data:image/png,iVBORw0KGgoAAAANSUhEUgAAATQAAACkCAMAAAAuTiJaAAABR1BMVEX///8AP4f+/v8IQYjM0Nw+Q4sRNYTi4+ns7vIbQodHRothZ5ro7PITRIkDI38dVKQdWaciRp0dT6EkSZ7H098ZKoUAOIMfaLQXdLohYa0ANYIkTKAYbLX3+PquvNFAYZaqxuPCzeIAXrF8n80rTJ0zVaDR2+uKnccAAHewudbh5vIAK4DR3OwAY7MJTaUAKH+4xd+QsNdBfL48ZK6Zrc4AQZ0GOZkAMJYAGnq/ytoALn9UdrdleLVvjcFBXJcADHafrcV8k7UqUo+QosCwvdFIYJlRiMR1j8Jqg7sAPJ0AKJdNaKtrd541QYF0h65Ub58vO4pBU5Nyf6picaEeWpNXYJtnh66bpsNsiK8wNYmEmbp1jrK0ucR1gqBtcqWcprkwNXs8hMOAq9UVYKOduNl9mspRXqlaYq13h72DlsRBU6cAGZIACY/Y7FhhAAAZM0lEQVR4nO2daX/ayJaHheQG0ZEQWwsjLDAYYxaz2GbHCwG8d4OXTpw4t+dOp51cOz3f//XUJqGSxJKkbcRM/r+7RKoqoXp0TtWpRTLD/NAP/dD/Yakryy0PuwBo/K+//bS0+u2nUXgh0F41ZfeSSvYdhtnFQPOJ3HJKLPQ8zCKYIWiupRRithgtLTSufbwgO1teaJySCC+K2bJC45TR4pgtKTTRDexscVpKaGLheJHMlhIa6DcX6JvLCU0scAvrN5cVmrd9uGBmyweNcy+2PVtGaAuNz2ZDA6O7l+Uxj7yLjTUmQ+NE0euSZUWRZdklAk2rBTfl6J+X2F68bzJWaJzIFY6yzYLMiT2RkwvNbLYpA3ATcMgmzcyAxXnFWU/DlhmMNRwgGpoolrPN3rA7aGXyUJnWoHs/ch0hcLbMTCcUM1ybUopSKINnkT1SXBMfxgRmrkX3m1hGaBzna466GdWUhRUy3bcuwM1rqiHn7rUESny8SVGSExnBTh5PuNX9kJCPjtzzt5xiu5dZCCOLjNDc3tdhRIw1CucTWveH790y1WqJzaEZMN9zG3PICX7Kb6tCqz+6KsjzNYWc+9ARvsmMoXEu2TuEN8VaJpC1M0JreE37o9xVab4s84EyNTkh0E/A8jTUcP9aUebAhmINh4hA41xKIg7MZmKLgeoIangs6/Xj2sdmd2GZFgUAQpsoBBnI0792z6TGKcctJzRnSJqluW8yU5BhgWT1tQGa+7XZO8H1RmWDqU2FNr5oeDiLmqgknMOMQOPaN/k5MrNM5lqHxsnelhWz2i/Pa2njqzJCvzAVmqj0Wt9QuecSgia6E/P15epQMTjMKytolgmLhrBjLmiwlNo/mhK1iYrsmPYMCkPzJedhBlosr8E75b5dGf6m8NXQIDW6B6GZFVyOYoagiUfdme0ZknDbNgD5ybYmbHdsjHNDA1J/b0/wUE5Z8JyjRRBaAURT8xia2jV0jZxyY+0GULN3OA7V5ocGrPjIPs7llEMntWdQAJq3MJgnJ8RhMAZvOz7hisP2N0FTb2wdlJOd1G9i8a/KbZua8Z5weCUczgs8HiLA/1HvfcaO8VCYYJ5xWW/4LNCoUQadwrTaNnGHCOzMacwgtMK92c+E+PDN9c8//3z95tWwP/DAZFDR8JVhOCA27yddMv9mIjQ204e6i7c81khaoEI88jOFnvOYoTZtQD16lhESBX0nkaK8//ntAFadHRUMdeLKEzs09X4SNJaJF9yKu+12X11/CJuoseqTJewQfccL2Us1Q/yro0TGePegcXl35NW35sCaK77Dfp4ZZI1zSO2EOrHzaL2fCG0AR+cotf1Ll6bGsjm3hZmYd1a/icW/yo5MFROsU7lyVh72jGN1FKVMknCsZbNamh6PcN4sfQng/z2ZatSAnc0zTnl5AWg3ZmiHbSs2V5OqkDLVBPradNMUaHBvQYZOzB9S80pc4diRdmYDDSjuU6whE8VRbA7ZifUBJlOYC1qzSxcUXlEjUPdtxpnMrO7JwKD+um2DzWADLmVA1Uel5xrVERm1T4XGKe/obpu/MXSf3oJjmcGOYGR1gvCwV3ZPXvgQyxRoEPaaAl2t05gKzSWPKGgsfzOeRRZ9rxzLDG5UthvZ8Suve80yN2Hdg/P1aRvpjox9KWgWlTnc06VMhib6EtuOZQbjNFfcLkRX83eJcrZtt17EKWKLYqS+a5uslVR/BrR3k6A5NdYggiMCy/IIgyModaWfOGrKFmxc4YZuwzyH2ThduDUHNEtHoLdpYvnQmbEGEYCm9GyfKl4VyPQPfQq9dM7JcpfOHxd9Jv/kE2jUPg0a531v8kCt9+TaTo01iOAwyndnn4a9Vmi9+4laL+Lcb+g2Wh3KnEyZBgtCtanQ4FjDFB+D7qSHJ33brxyyvjlJEJr7eqIz4OmN8P212xB3KkOTd75RxCOTf4ZF2RaazMF3PVxyW7kyzRMAnyZ29spZ87RWoTdWfMPJA0mGeOl1mbRtnOvKNP/W8spi2RRzCbcwVLNCa/rKPl+54LoetswtqXoHi4jAzhby7s5XCK0RcO3qrNtUwzc+4qIyPSJk1XvgvPK1hz5517axNDY8BHp93215eMvUEJqFBONNh/smo0GTvfHJwyIita+g4SfX7puNCjT63vcm8wsfum0mIVUgXlXhT5l+DjRpohv0qIfOjWl1kXVP+ao741ZBNBZXYEPtfR+mz7dg8yXKppVjNOs9cbrb+mMsc3ckiuWeo2MNIm1bgtx+7Zm+JMWybJyTOc4Ux2uz4PIburps3Avn9+dfI8iDmLmwDHZm3ADTvI7zszz0TpZN/aQ+Sw3X2yl53ri/AhrDfMiK7oTz2zMofasVJxYKN60Z2IRbxeWlAk/gnS7c1MmmEEL9oMwPDY0hHLBvez4Z9qeB0EO8iXvGy08WsczA2/xgOnnXxJ2q+9YEaHD1FSvs4WsZMHN6rEFEbR8V5YL3VT+MQ1fb++dvj0xeyI+If8vXphQ46z0XNPBLmVt32zF79mbKtFGZk93y9dsu5maHrXuo0t6Z0ff5yXemEP++PQ80eLXwrVw4dNjegymy7O4GcYJSuBp10UZSay2SXXoJielnRaKy2T/DBe9MaNAh1W5PdvZckEm2L194OeXIl+jahUy8mUK3V84eAWWzrnemequjwnRouAlbufF5C07ZgzyXJryxwoliIYtCt5lSPa3uXf8uHrby6WYt0Ogdt6wqtIZHTdG6EdXRmvKaj+g66g3sdgbNKRCvTrY0llV5ITPoj8rAvWGssTS+yRjjNJvlALFtjlhtpFuNTbXf/mbay+FpYQ3i8f7w9tDd9IFIp71kzMbQ3G0bbJzbsjnmKwTDOvO2BBd+wcfrUgo+Xxuas1hYnliDSIMmJ0bltnU1oD2c9vbEDLFgiGWZudVfouLgdCRaD3DiHpep0qBdxYVuL6uY1jpFuf8dlgYoVU1jrrjs0jfW4F8oc0sUaxARaPIx6CiFrpj1ceNFOxB6XX9nr5aftoSHmIlL1W9iYWhwBylsyPnBW+Wo2cYVkgtH//AI2gKNg++ILZudaTO3ygg2XRAb6xn03x6jbZCJD4PvaNDsZIG2bLEGEXmPgEQW5CUvwQMl/OPVMUHjlpQZfo+gPF7q/Z7JGfsdyMYM9Ap720HviH2V8BKe6SUnlpm0B5sSq/Ws8H06kludOmNuhCa2ly/WIILQyravUcyW53U3IxiKqnxm8GHacNUITSyIy+mbDH75wm3zNt0cYgfyL+8PR/fdQSscDrfi928TV+3mtBc5DNBArLG0zOAGmPkMzVJBVr0vgOGQ23eURQKhisx55bdTLmbYy9F2xncPvk1kU98cz5w3b70QbuEmH07UhYJi+9fMtDIEms1LycskCK2fn21qbKZP7/cgi8QWuaesOmvQljbWIAJtGnjsfct3JUxSBz3TfiyWvbObieOUm8kRMYHGLc+6k71QcNtuH9+3cCxrjjTIC/+vvXLe9OUJ/tYWmvs6zEz8QgKCtoRzQSbhYRTnVn667bYEPcI1zknzrftrxWd5yT/jsvNO+N2JKT83UNBc0HPU5AWlf2JClt1Xif4gw5s2D4e7o/dumVP6YZPu7d/V55TbljnrWH2ZW8p5DVrj6W64+8x35E6868db4QxUctD/kGg33ShJ+cUky2eFNGpywZx1LDeKaZdd5g80eRX07SS4YRH+o6lo02uG0MIQYNhSM+c0yr3UsQaRZTUKV9nLca7paL5JDvpe0PfoRT9vCGKNlrF3nmNSwJF6SWii7R6XJeT2gtDM606q51//Wpn2USjH6uWgoTUUA6DMbeKP4WjUmrlD2nl6MWhim3oLjQl7h3mW5ePv75bP1l4KGtemVwPDV122/8cf/xbC2bk+peIovRA0TqH7APW/blW+PFi5GfHdwqSvojhWLwPNMhfkOewyfM/DeEYrQtZpnxKaqReBBmLaFj0Xt5JoAWgf7v6459XyhI8WOVcvAc2y7gSg/Q6hvR4NBUb1/YBmx8w6Rvcc37FCL58cAg/Nftu6zgL1/NDEttf6HUD1Q0JQCx71wz3zb+5HR2AW13bZNfSen26EOM8Ig38vn6Ghdc9nlWz73VCW8Vz9uiLwmbv3/SUMbn/9+Xn1xj6gYBnh/r9HN7/dmr8ItgxSPc8sYfI6F0xeygH74rWMzCZ+j/yf0oyffrma/tAP/dD/Z7Es3g/59Ylaqn2KbQJrKjL9+g7WlGZ6Ris/DY19killnl7EcWL5/HZyHaqS3LYGWuz2OpH1HTtV0IomM3ljURDNaqXWzfuK9JRtXCCvHS/DRzqw1O2Hjyd/rmLtnhx8XDftX1N31lDa2q75a3p88mHjZFcv+mknmWdJJMYyvHbNYpIqxDJJkrC6jjcpkeuvrj0siampmY9/rkGR+4b/Ovm4bVwzUnciVmjwfZfKxu4qXXT35CGvF31IkYQNmoV+vZNtdJw/i5KMJ8sxAZL/uKtVeqy11d2d8e2zdpYGyGQ2Vi0lAbk/1/EWSpbJFzUbpFkIJ+R6H7FFV/76a023ySWAljmx1ps8dP1lOdbG0gCzdRtkSJEN7dsLJ4TamtE/gXdqBSvohLqR0qFtvGTlv1HrkQkVB1WPbJNMAFoRWp8BGsuoH1MTi6ZOBJwpif1zLbJhbCTVjaL+XJBB7hb/iiJzB/7tfP+sAGZrJq2SM6uRVa0vA5YGjtco9wTMJmq1eIDeV2OE3Qg+MzZbCGmV/MAO8mJ2vbgG/BOfS607Hdr2qoFZBNYvshYxVP0T+TQMgoaaeR3auoFZJGL8P8wDd4Psjpatov8oC8qSX8WryepBcS36O8lXPHH0rgUQEhxEVvV6r55s7Dw87Hw82B3XfW0dZx1D0zZnbBtgr+0efHxYf9jZOFkdF93dRj+R1IAa/RO0dNj84F96YZltkCWimdpaxMHfCAZi1/U6FldBgMWr8DMQ+eTHtaJWgQPcNmnQIho00CrpRU8eQDiMi1Y+6acjO4iScIBNLXKiuTrwTmJ9xQd8Blpj5C/N1FLVBaCYX8IBgRZJbWwbXxNL7hY1I8K9HugIaGgZ3RxTO4ZAmOUfNPeO7CJK6kMqgmTwz5yEcxSxMaro13T/jOw6uCtg9ZpHUp9Mc9DbhFqkiOwF9p4RIzRgefg4knowXXW9iJOKgBLyvbUigpbaUsk4Qf0TXyx1wKIcyRK6VE8iuE3DB2cJkYA2UDyxvHKSXENJkSLyTwAthboIDVr+JLWGUeyYZ6/ZKjattRQOXPlP+DhF/BM8K5KhhKkyIAPEH+yeEaPc+K7vNTyvhIMi8RybpV2tqrg9B9DQYbGDoSUjxHwsroSCLpxG2sNKNIqOo0k8hcFuYODFiIDz45soSmpVQgnR3W3GsdreTem1M0EDoVNEp8RgozRAYx8I7tSOdUJE3SKXPcMzIvlOFKlE/FPYxRBLn3CB9RI+fGIy2Hojkdyz1vs7BMcyxYk1ZzLAEoCJRCPQCnVLS2FoYNiDjSditVEWEI3CoqkO9keQGUFLdTDESpQAR1eGQRqGloQ9LbhkJKqFh84Ty1bA/UEu0Yr17++Cp54qAqVQIoYGK34JobGwnYoauNBFcylcVEtMRv3Y1BBh9VMRl93FDDPwCF5KYNQqxhvtOPZ1DfUB3yEwF5v5UqFChKbHADRsLQgaw58iaFE7aAyb14oSexE6BNoniHSbeGuQfAebXLm0BW4icwmfTSSaepj6NYEFSgVuRKDZxUXG6WczNOBH6FA6s/1YmnnmekdCtuaPwLYzF6V+VSAMJXioXZf0IQ6U5gz+vfmh+TVoEq7pyVzQMsGoHyhaA/GtcEp441gGtHAEPxrgV/3TnqMDpEOzdU9KLIgGbKHZW5ql+FkQQSsdAIB7mItURb2P1kuQw8yl/68i7mm/t3rPIx1adOZjtUA706DNtw6SO0em5pcEVjdvHPBlcHvnX8M7J3ntaXQc6p8GaPaWZnRPDdoegRYkdbOHRrsnaKskxCx6XuE13Ad4bjdndFYg8jtRqeJM/0TQQE0k/8wbBAErbMtB3jE0CGESNItOa9g/H5MR1CX4/Xi6jT+V4C34gXfiW8hcotRo6dSRzAA0/PylKIEm5Awa0CHHVgnnpaD5gxq0jLGoVjI5DlGT534JarND/PQSR2KZKLwHYMArJCOwRD+WMxdAx9BIm5b/XAtoukqTRD8ObmdAqwRCuFwtULtK+3Uw+nrCXglSC4qYkV86xd1AtYTsyj/uUKr4h6K1nCP9U4eG3RPU7CwWhIqFQqG0SJ64lDNCC2rQYjS0/BdSFJQVN/1GwFhbDWhonJeYkYQn14ROCV9naxyekBzBjiNnvcfQtN6zWpOIgqIO7cHonhq0/ZifgqaeBUlBSRJFvzEvFIj1EVNvjyC5zOOZtJqOV78rHJ4AU3PkVxBNlgZfKgmCA1x5rebQ0uaABnj7cUm/HTTI4lwKpr0YiL+0hU6ypwRax/BX4QfnJBJ25AKowdJYDE0bJIIObHMGtBIFDVhSSSvp79lAY9lcLRgUOXLR0goytLwU1Bjqu4cYT41k2nPirLdaDWLTkCoEGktmHsGgudcjNhfUoUk0NFi0pEMTtKmwaPR3XJRu05j8ZUDyBtFFAGu8bSHXQBn9sRXDbbH42uDiFcZ5Al0XaYb0qaFKKYXlBz4m0dDQUYyCJpXGcdqnUhEXlTiRlKSgqU/nohcn+OtkvWkftaH+4CWvjsXcnfuD6PQBr/JA+A9PvSiaydKh+Qk04C+fNohe3xBDK2m9Jw0tYIaW1Ip+ehpJxrxYYGQekAk06ZxsRiD9Tulyy6D7m5iEexX/2ekB1umZUwYIY0vTx57s+IEn92JjM9ShBSdamqFoLkhYUFOJ+f+0iaHVOvhMtUEeTLA0VjDAaR1xMC2HQBL4j3S+75AABECDYQC4uZzN2DO5WQIpUkzC091b8CgolTYJtBo+vLSbhKwGUWKATlRfy8SCGjnUDfB7KAyBmSWDQLQTRMiCwU1RIkWkmkM+902gBaVa1bpGwFYkVJsQogSgYUohAu0MHQYNRjouCvLiy+7TMxWtTQwzKOFusXKOr2ESCFkIM0nyitrJhjOW3UEUQCpes5kV08wwhHxMgxYMYGj8Iz6Uzq28tUSp9khfNvM5hss84Y0NT7VJ0EQCLegVY+Sfgb0pf1rz5QTi8b0Qus2Qjb1otlTbR402DQ0cBgjvjtltQMi2hxNrTzTQXAwPtWq4Uc9jhrbUtH+mxbSkPVlHzOWC3qsTwHcETY2l0ypBbBa1RzQNTVxOszQtGRTdMrfQWtZgif4LouopPl/bw01dLkAuETMpFPKm0XnwH2BqWEFonw6gBhwEte7g7pBRGHuDfIfUPFDFezkACXjrGrTMZYCkB+DCriGyADyJ/W7SWzLyuAjwTrxb4bFGcFmopUVOOyemA/ifwdKeI+aKgDmlQ+S2a0/IC7Xp1kyH3GvgC6o5gQbMhEBTnwKkxoFAlTcWrUgkpfYfupa5Ev6pEvbOzOcAMqbaZSVpUqu1FYqhnwts5sanHTIBLnQC2tMN7FX1Ogo5reKxQIfsT9uqYRIEGpMMhQi1UK1T0euT36pp5wNak4ZxCvv1NDx/jgMRtop/It14sgn2M5s1Qt6BQ6nKeYgoHWgE9rfAc61UH6VGKE1On+NdFQgaOBxDY7dqWp507UJ6rFZg0f1aIx3DZwNfSGiLs+dP6yghVsPrTIAhumAgljS+40PWFoDvoovEGo/qlFeFFiN1XPVYOlC/aNTrjYtGTat4un6GzQBAq6cpaIxwOaaWrjVI0YB+uXMcWIHOtJrL5bb2GjHCEk9wJIMBBK2+b+d1bC6ArxIIOSSoNYo/q8c0Ywvhriud1o/rn4nLQmgo3xgas/2lnh4XTYP6pfWiAYQbT51UGvXzeqOeDiAOtUfSsTRwXpvAGirzBVNLXzgjqKUFBkTa9D4UrLCmdF3zMAQNJoRqn8fz/snP54bcIUPRUKjRIUEMgBaDjwMmhkBCGnep+Ut0vQB8CHbi9/FdxeqXz8/gawWCta1Q3VD3MYRA/VKPGWygAWXO6qCls5aM1er7eZ1tJaBfPpRu4AiGqeDfDJ3beidQFUMFpubIWW8+d9k4H3sWshjQEdRrp2MjsIfG5KtB0IoZS4YCoG1shLb0YBlCw54GzCb09yN5L+H0Io1O1aq2SEBLSAqlL7aes/LfLDZf3YNNOBAKAtKwYW90KoaNdQga6gg+U3NkauYp9ncjRErCorH6xfljcjxOxJYGGz0AE4YXaN0rLwXoLtZ8S4y6j1vMWGDTIfGZRULlLHZx0WjUa7Va/eLvi82nJLXdGzbcyNIan83ekgdxxgXsO0HJBvjH5Rb1zX7UEdRQWu0syZDOIfc/abxKesZPcr7c39ipQw1HDDrtJSRzW4/7nc7+I4jWzLs3WfUuvQkVuKRDADQ6yCerT2f7nf39061KxvQnfIGjPe5fXnbOtnLay7Pgv2d1dLXNL5M217KMsEkU6juUGQkcVRXOyOMzpgx8nnwTxxwhkPYeFWXtisKrCjz1V8tZ/Qs7k6f+x3k8DoVGj9a/8lvR8xZ1TEj/j+pZPjHBaB+ToE8xLP6f6bfjoMHTD/3QDz2H/hcR4Q1nK5pd1wAAAABJRU5ErkJggg==;" vertex="1" parent="1">
          <mxGeometry x="680" y="290" width="206.59" height="110" as="geometry" />
        </mxCell>
        <mxCell id="nHy3PQvZwh_i2Zd9X1no-24" value="" style="shape=image;verticalLabelPosition=bottom;labelBackgroundColor=default;verticalAlign=top;aspect=fixed;imageAspect=0;image=data:image/png,iVBORw0KGgoAAAANSUhEUgAAAQgAAAC/CAMAAAA1kLK0AAABXFBMVEX///////3///z///oAedwAcN0AbNz//v8Aed4AbtwAetsAd9///f8Ad+CQue2nyPHl8Pq10fPD2/Pv+foAc96Sve3///f3+/v0+f3L3/Wny/AAadxgnOcActoAddr//fpLkuShxvFyp+eEs+oAZ90AbdUAb+IAaNYAe9j8zADw+vc+ieAAZd4AdeR9q+Mmgt4Age77YwBhnOPb6/1fn+eWwOPP3fZIkebX5vHf6vpNlOG01fOmxPAAYNUAXNsAZs+KueRemerP6PZupN293O5Ni+pWmeDf8vSx1u5/quhWoePw/vnP3fU6juGm46A/wCVhyU/f8duh5JYJsgA3wwtQwTzO88v+++f/5qGT1385uif77s78wgD68sR40Wr83n338LP91Uz83Gz244v60xj63F8LivP76t34sJH40Lz3MwD8gUoAdPL2TwD7ZSD5k2f4oHr73sz7cA76ci4nOdm1AAAP0UlEQVR4nO2bi3faVp7H70vS1cuWkdAFZAnMQyZgTGI7awLNw8S1k+mmnTaZzT7azuxuJ013kt3t7P9/zv7uxcYGY+yGzLQzvZ+TY2MQenz1e18FIY1Go9FoNBqNRqPRaDQajUaj0Wg0Go1Go9FoNBqNRqPRaDQajUaj0Wg0Go1Go9FoNBqNRqPRaDQajUaj0Wg0mstgZFmehS/eIGTyJqL4+m/9HeLhmFBMS+X1Rn1vc3N3a2MfxwhUEPhXJQSmBIlyo2/YRpq6vh/lScIOKgGiVWT93Cf31wSTcKtvRpw7XOE4DuOGGe2V8a/IIogVi/u24XLOXM4iwwC7iDLGmOOmrWEZW9S7jRjYszzhkWWbeFhYqGpZ2CP4yj6rmGAVpSxsSSvEFhI4rs5uhjGxqp5F1UuMRXXp8X4iGP+Dkzs+Yzw3+GG9sXW/uLvZz5uZzxy/97Ae4tsczcIQYygVSw8ELlgF8yNe7HW8ue+LGC5PHgkEkVePIULBF+Y2wzTGAnnqcwGvqx/Rc2kx4ZnrpM3u1qBE4CzkmeCwUHdssBLQaIDpLXZj0dPRRhAvOTEcAFTQcBAMhDVnERgPyjiWbz54UqwgJYTYXS935g4y3OpA4JJUcbCxtux4Pwm4BXsJ8x2e1MfyDigZ1F1BKKy0E8d1Mnt0U6CwMDhQp9u0+wG5XrSgZTTX4ACf7GQ7AZ0zM4zqyUkZvkw3HiZd+BMsLEiMR4PZzcLEdJ4RZTGkYbeSAEsf+gh4nZrNGdvujvF8XAS77GztRD7nj0GJZTYPRmzRuJsy3uuHtHTdViWfG2ug/brN7GD+9HFg+Mnuk8ZuONp2a7jS2B3gfZu7s3vDFZvvFIiKIXS87We7str5ide8CIwPbdfx8+KC7IAphLXTwwz8ZucYLY0TWMSlrsEzo+33w/g68zkTAq/bzlUh4l3Dbe37kRlIIchRvjOiBcPtzt2AQ5+7WPkD9Wg98lmJzjvZh9FIGPezYxp7C3TFVULivQRyahosDxP0tBu17XrD5Gk/+CAh9k3HrlOHGxOL2Mu2C/QTIz2Y3eqBwY2i9CN5D9Gg5dobt4lfN0ILO47L7AfXbiAN5anBee8FVWFj0SYQIOjYcf30UODNnPlsTCDPTPOeh9U9w1IIBkJYl4WgyhCpILgbZWYgfCUEr6EDsML4ILOfqM8JPcsjaz2XHRwOa4rDmu/6/drZH93yh+uAhcNd1iwvj4X0KOXt5hYV8cKPq3A1o2aP58MSqdJNg/nNCgYZzu+UgB4Gspx1LsRliwB15WYeJWu2YxTjDsuiYGT6NbSXJgVUy3zuQEHjO6E8Q/A/hztHRSM7x2EOB9eVpI8LH6xDFRXzNrefQC20bDMSglq9NMTVaz4Xu82sbQwtyPCUQA5iyXNx0athcfx0RDy6SIiN3eNQXiGtJNztE0+AE4ajxD8Ei9jeCLnvMIjVnPFQ2Q8u2ry1sZv0jAl2ZESy/FM8HH2wELgTRSzrCmwtj4T4uMkdaaSzm6lzA6sf923GkwPwB6gXKXraZG7eHRNp9cqgn+7kNRWL54SA93ab2zUkPdRmLA8o7jgs2mpAiBwdutuFwOBRbkaMp0YHK8V5xJjYaCzk+eDKmd9aiBHcB/NGi4ISaNhzor6Y0wtXKXTpaK0FgbxZlBEkFlAV0/sy/tpFQielOS40+baKtbNCgGaU+ymEPlRuupAUUexBjGBpCo1Oyp2dAqTZbqUydKPfrMPNgixWbLG0CAJT5XYz/kwxWiF51CLufDpfxC4SogDXZpbnAr3MrvHIsX2e2gVlHzXT7sawtdFzeN4vUFWbY2y4dvGqEPCFIGE7ZTj/By03qaCxexwyIzpn53i3lzdwXOf2VmwJq0oDO+NQ3FlYVICNy1RGYgUdQpvzVuXGRkI2N33OjQaZbw/oeJhk8EktmDRHwx4DXS0cHLY485OTfZVoIN3z/iLXIBWDm7JOILXtLUqfRjsnB5tThmXmms8QOsrsddVhob0e58kz2Spvm/NkpWuS2m0otxgY7c31CJzDbuRCKJ9DHNjgs1mrCJlVSIs4cd1DecpUSH+B4uhpCH+gwrZr76MFQmy6WU3eB1qsUBRGTt64JD4a2H60RnGXmSMq284RpHFmboD+Yea7s/j90grzgnUDaqlbfR9XImg65oo8ijcjzpsvHqDzpvNEqgVtB9Tb+/2EOfkueDN0iY5rFK9aBBEuz7fU4SHJQIng50FYmhIWTeYeYMSYWaDgeaEBVy+FiK2w7czB+p0VCkwIz9mLWxVmZL/l8HS+3cCnRu48w3GnIyYN4ZkQFHvVGI147pRUa0XrqdtFV4JlXDC5OVCnHwt8arezp2Fzauvb/AVjbl8Ig5lQq1L6wmcZc0AIyPZX3RkM76ZYdz3PUzfbQ0u7qXMhBs3czudqZwsyxhOBLNF3eEUZ1jADIaqyF4UPSbi2BZJAwKQbLW4EGM+7xvMMLlTeCIvEaBjx9EGJyaoB4FC6uJHjp6eByaMSXOdoxzV+05YWUcWdwlWE9+G19vOU+3u3yjokeFKupKezWQNiqJC9n4i4uTURgkc1qpp5gqwqmXpdkHJ7nc4LIfputEvlPi2Bt0zXzUrBY3PbTCSmzZ0ec4xC2fT7ch+dptv/LGmDEBQFzavBMlxhVtXo8ezwVuMnVRCUOnN1xOSXFMKeCjHEJVHyvJL47GLggNFhO6ojHM4IgcvNzP5HNfMhtJyAKWRBHATB6amc34RlwzG3bGPtWRIN5U7oC3sgUh+EwLTkXgHa/w8XAnp75t9uDvf5Fy9/+6V3JUjgeSHcyMhtIE8eFS++jYutiHXQrBCobvC+mMg5aIEOYBEQWM8iZVjqpsMw7e3t9jKVS+JigYamjBFVUcrmdfC7YoVCYrztsJ3wxrThYe+rl6+Az+Y/mXzzshBQGbpM9knt6JPLRzK5PZ61CAS3NWogFWQD3+WuyyM4l2GapfABsxvhwwKuuY4L3YU6FlxoyZYxglpxEF5hlXF7aEJqGt38/Rh9IXV49fnij2eEiJrKxZPmwwuLgGDoOnbxskUYQbxh82R/0siVsnb+NJJCIOisZZOVmQ26XyLFnGVuFKidwAGEKYXAKFZT1VlWyRpo6Mowf9OkCxIAGMQXX7z67S2EeDF6NpJBfDQaXChskRM3OrxsEXBxfT/rIqLKdrL56Mm+zSZCZGluQmvTgNaDDpqOE72YOu9ECAoFFZ8jc0rWhwcJst7yXXOAbpCiaqHfKYt4SaxFOWY2WBKq6mESXzJVC1XyLKIzFlHeZmaFnLlX5Qkum44UYphl9fHgIDMasUWqGJwsfzLd0UQIgUPwHpdPpxLgVr7TQddMCW4B7jCIbkPsXS+mpdZUvH+SJvHq5efWopnEhRBnBdXVTbxx4m6XZ4QY5lCqnm8KL8omWIRFDnnaQKSeps9RDDZVNJg9puc36sw1cAmaU2OSZlWqlaPS0gpNlxev2b6Tb8TLBuJQLbz+7p+//JffvXz56l8pWbDlLYSwyKNWf1aIcn27cT7mxVVIplIIhLscggmpZ9Fz2jiiZDf3s9L0Nl0IwaL66IIDdzUhsFVqc8d5PF4ScOGjf7vz9Tfw6rOvXr78drlrnGSLhcCEHofksmvkpyTuiHPzkiOciRCEuyZUqfUsLxab/VLQhFyyNt3jVAgXbt+lw3xiZKsJgXFhW+bvBzFZWGDKmevr39/5+g9yPRJ5X3778it1WVVVGBM5j4OT7EghZGRAJz3oJj1CiQJP1jexfLRADlYgYUI7CaVRJWeQNTwZ6mWL76kYBUKkAe4k0GgTVM+yfuQ+PoWujrHoFJ/N0KZCRMyoXDrPIvT5pRXXeXZbmeM741hcTT449r75/b/fuXPnP1STQzwUf/uKjBpbp1Q13ZacyIIUYQ8KaGg5LXTisy6R3aeCxtZkKVPpBZSgfViDP9eNdh54k6AKWwt6JkRUooXE2QkoredZ5iRF6Mpco93bO19RvRDCMWeEsNmKQkCUrBnQ5KWFBcubGP3n13ckrycGYHlelR7ld+++CZSxCkrkXJtAl51WlEUNWVa7bFrqCun0nRJnkawuKnm7dTo9Hp1cwcQiDqDdh9p8k7d7yVqYZk63AtXkiE7GaH85ISCPi27kO34il7xnvEMFh+++kwaBVKvvgbGT9Xdv3ry5uxmrW2ThY9t1WdvP4AfYsCOfK2hPKkvZQaZq5LqbtAxbkcrqUT6L4riuHam3DCMZTpaqQIheeGpwowEeU0n8ZiV2ejw/xrDXZDwZil8SIt+4dK5b9squAX5++iJnrlmC0oaqSZPnWZAwPbibf7ijlPjGOh9r4vgIdOi/eaOuEFVJwYQ6UP7zFbJh8M9e+75rqLF3I2pzNoVP+myHTd5zHDl7mQoxjNxE9biVaBz2U2YWUTxOHJ5OUigIkY+kj8FBhvULhr7jrCgErlo0rLV5l3hVVD4OqJoRywcd6Lj0DZgDCPF6Wmbgzl2lwxsV74nAo4fyoZIoOltniC5eShK1yPP84ZWe+TLNGlaTBBDCeZpwo65uPg3R/YSnR7RKcTFxmhWlfJiw5CxrMD+djnkNn8v0uUKJjWSUEHTTb65hFJw0E7tbXx+NCqNK44g/2o9lpLzzRzSt2XBBesabvHJmqXSwVlyGkBZRWK8sY/3ZZDkbGvH8tNbKJk1gJ45R3+4KC+psfGLuTXwxTLLmhrQIw3AjObY8Ky3dKFrZIsAhRJvbZbGW9NrQ66VmYprbJuzZaKDXf4QI8f3bKkGTsQGu3b17t/emSCezsvkVnwV7P/+xBLBBeQkFk2UB2htPVkM9yEeDQwE+KgP68HSy9hl2h91nMfw+Odjc27zE3l795i76RgYmZ5W2Lf0XPFetsHHuZCwpChTH4of/+lMVIgcilG69e/dpJVildLkeEQRBtRqj6fOMmAhy/qqqnpVSDgmua1UXpLiPsCheScDhIPwkn/abpi2fLsxcI3mc790Pq4gQ+vb9f/+AQixo4d27EZ3PLh8LQuSjZpcXJy4mDJaqxxAEkyq0AxYR8w+ZgG2K1Z8X2XS4zyK7P5IPTm016ptHR/ViZV8+BiAs4Xnif+69//PbH2n47m4AxQT5OI/qzEO9WFCoSS8egCHThWQyGX96ENkxrkLUoNYMUjJv8Vr9rcFUdHkbrOHZ9dt8fw94f++HjdPVjvWLBrSs7yT9DbLsmev/vfdn4N73qyWoXzqYbozEklgDPcSP75UQb2+zBPK3C8aX2oGFG9B4YhFv/2rn9MsEC/QnqcT7H3/uM/l5kQPi7//v/b2/d8+4GYFjK/7h7Y9i/vHpXyEqhPyq/uOGRqPRaDQajUaj0Wg0Go1Go9FoNBqNRqPRaDQajUaj0Wg0Go1Go9FoNBqNRqPRaDQajUaj0Wg0Go1Go9FoNJq/Vf4fH0iSUQPVPo0AAAAASUVORK5CYII=;" vertex="1" parent="1">
          <mxGeometry x="705.83" y="600" width="167.25" height="121" as="geometry" />
        </mxCell>
        <mxCell id="nHy3PQvZwh_i2Zd9X1no-25" value="" style="endArrow=none;dashed=1;html=1;dashPattern=1 3;strokeWidth=2;rounded=0;" edge="1" parent="1">
          <mxGeometry width="50" height="50" relative="1" as="geometry">
            <mxPoint x="783.3" y="548" as="sourcePoint" />
            <mxPoint x="782.8" y="458" as="targetPoint" />
          </mxGeometry>
        </mxCell>
        <mxCell id="nHy3PQvZwh_i2Zd9X1no-26" value="" style="endArrow=classic;startArrow=classic;html=1;rounded=0;" edge="1" parent="1">
          <mxGeometry width="50" height="50" relative="1" as="geometry">
            <mxPoint x="270" y="650" as="sourcePoint" />
            <mxPoint x="660" y="210" as="targetPoint" />
          </mxGeometry>
        </mxCell>
        <mxCell id="nHy3PQvZwh_i2Zd9X1no-27" value="" style="endArrow=classic;startArrow=classic;html=1;rounded=0;" edge="1" parent="1">
          <mxGeometry width="50" height="50" relative="1" as="geometry">
            <mxPoint x="300" y="410" as="sourcePoint" />
            <mxPoint x="661" y="200" as="targetPoint" />
          </mxGeometry>
        </mxCell>
        <mxCell id="nHy3PQvZwh_i2Zd9X1no-28" value="" style="endArrow=classic;startArrow=classic;html=1;rounded=0;" edge="1" parent="1">
          <mxGeometry width="50" height="50" relative="1" as="geometry">
            <mxPoint x="300" y="721" as="sourcePoint" />
            <mxPoint x="660" y="680" as="targetPoint" />
          </mxGeometry>
        </mxCell>
        <mxCell id="nHy3PQvZwh_i2Zd9X1no-29" value="" style="endArrow=classic;startArrow=classic;html=1;rounded=0;" edge="1" parent="1">
          <mxGeometry width="50" height="50" relative="1" as="geometry">
            <mxPoint x="274" y="150" as="sourcePoint" />
            <mxPoint x="650" y="360" as="targetPoint" />
          </mxGeometry>
        </mxCell>
        <mxCell id="nHy3PQvZwh_i2Zd9X1no-30" value="" style="endArrow=classic;startArrow=classic;html=1;rounded=0;" edge="1" parent="1">
          <mxGeometry width="50" height="50" relative="1" as="geometry">
            <mxPoint x="290" y="360" as="sourcePoint" />
            <mxPoint x="640" y="630" as="targetPoint" />
          </mxGeometry>
        </mxCell>
        <mxCell id="nHy3PQvZwh_i2Zd9X1no-31" value="" style="endArrow=classic;startArrow=classic;html=1;rounded=0;" edge="1" parent="1">
          <mxGeometry width="50" height="50" relative="1" as="geometry">
            <mxPoint x="280" y="700" as="sourcePoint" />
            <mxPoint x="660" y="360" as="targetPoint" />
          </mxGeometry>
        </mxCell>
        <mxCell id="nHy3PQvZwh_i2Zd9X1no-32" value="" style="endArrow=classic;startArrow=classic;html=1;rounded=0;" edge="1" parent="1">
          <mxGeometry width="50" height="50" relative="1" as="geometry">
            <mxPoint x="260" y="190" as="sourcePoint" />
            <mxPoint x="690" y="600" as="targetPoint" />
          </mxGeometry>
        </mxCell>
      </root>
    </mxGraphModel>
  </diagram>
</mxfile>
